<svg width="1440" height="320" xmlns="http://www.w3.org/2000/svg" stroke="null" style="vector-effect: non-scaling-stroke;">

 <g stroke="null">
  <title stroke="null">background</title>
  <rect stroke="null" fill="none" id="canvas_background" height="602" width="802" y="-1" x="-1"/>
 </g>
 <g stroke="null">
  <title stroke="null">Layer 1</title>
  <path stroke="null" id="svg_1" d="m-1289.27752,234.89708l41.55084,-15.60289c41.55084,-15.60289 124.27131,-46.80868 208.13538,-46.80868c82.91107,0 165.82214,31.20578 249.68622,67.58003c82.91107,36.76431 165.82214,77.72191 249.68622,93.61735c82.72047,15.31034 165.82214,5.55853 249.68622,-15.60289c82.52987,-20.77135 165.82214,-51.97713 249.68622,-78.01446c82.33927,-25.64725 165.82214,-47.10123 247.78021,-25.93981c84.05467,20.77135 167.72814,83.18292 249.68622,93.61735c83.86407,10.04436 167.72814,-30.91323 249.68622,-52.07465c83.67347,-20.77135 167.72814,-20.77135 249.68622,-15.60289c83.48287,5.55853 165.82214,15.31034 249.68622,10.43443c83.29227,-4.8759 165.82214,-26.32988 207.75418,-36.37424l41.93204,-10.43443l0,218.44049l-41.55084,0c-41.55084,0 -124.27131,0 -208.13538,0c-82.91107,0 -165.82214,0 -249.68622,0c-82.91107,0 -165.82214,0 -249.68622,0c-82.72047,0 -165.82214,0 -249.68622,0c-82.52987,0 -165.82214,0 -249.68622,0c-82.33927,0 -165.82214,0 -247.78021,0c-84.05467,0 -167.72814,0 -249.68622,0c-83.86407,0 -167.72814,0 -249.68622,0c-83.67347,0 -167.72814,0 -249.68622,0c-83.48287,0 -165.82214,0 -249.68622,0c-83.29227,0 -165.82214,0 -207.75418,0l-41.93204,0l0,-187.2347z" fill="#F2F2F2"/>
 </g>
</svg>
